<svg width="0" height="0" class="hidden">
  <symbol xmlns="http://www.w3.org/2000/svg" viewBox="0 0 16 15" id="rectangle" fill="#000000">
    <rect width="16" height="15" rx="2" fill="#2196F3"></rect>
  </symbol>
  <symbol fill="none" xmlns="http://www.w3.org/2000/svg" viewBox="0 0 24 24" id="send">
    <path d="M24 0L0 13.5l7.67 2.84L19.5 5.25l-8.998 12.14.007.002-.009-.002V24l4.301-5.018L20.251 21 24 0z" fill="#fff"></path>
  </symbol>
  <symbol  xmlns="http://www.w3.org/2000/svg" viewBox="0 0 11 11" id="cross-close">
    <path d="M11 1.108L9.892 0 5.5 4.392 1.108 0 0 1.108 4.392 5.5 0 9.892 1.108 11 5.5 6.608 9.892 11 11 9.892 6.608 5.5 11 1.108z" ></path>
  </symbol>
  <symbol xmlns="http://www.w3.org/2000/svg" viewBox="0 0 18 18" id="email">
    <path d="M15 3H3c-.825 0-1.492.675-1.492 1.5l-.008 9c0 .825.675 1.5 1.5 1.5h12c.825 0 1.5-.675 1.5-1.5v-9c0-.825-.675-1.5-1.5-1.5zm-.3 3.188L9.398 9.502a.759.759 0 01-.796 0L3.3 6.188a.637.637 0 11.675-1.08L9 8.25l5.025-3.143a.637.637 0 11.675 1.08z"  ></path>
  </symbol>
  <symbol  xmlns="http://www.w3.org/2000/svg" viewBox="0 0 18 18" id="person">
    <path d="M9 9a3 3 0 100-6 3 3 0 100 6zm0 1.5c-2.003 0-6 1.005-6 3v.75c0 .412.337.75.75.75h10.5c.412 0 .75-.338.75-.75v-.75c0-1.995-3.998-3-6-3z" ></path>
  </symbol>
  <symbol xmlns="http://www.w3.org/2000/svg" viewBox="0 0 18 18" id="phone">
    <path d="M13.996 11.123l-1.838-.21a1.441 1.441 0 00-1.187.412l-1.332 1.332a10.888 10.888 0 01-4.769-4.77L6.21 6.55a1.44 1.44 0 00.412-1.187l-.21-1.824a1.448 1.448 0 00-1.44-1.28H3.72c-.818 0-1.498.68-1.448 1.498.384 6.18 5.327 11.115 11.5 11.499.817.05 1.498-.63 1.498-1.448v-1.252a1.434 1.434 0 00-1.274-1.432z"></path>
  </symbol>
  
<symbol width="16" height="15" viewBox="0 0 16 15" fill="none" xmlns="http://www.w3.org/2000/svg" id="checked">
<rect width="16" height="15" rx="2" fill="#2196F3"/>
<path d="M3.95703 7.75166L3.88825 7.68604L3.81923 7.75141L2.93123 8.59258L2.85486 8.66492L2.93097 8.73753L6.42671 12.0724L6.49574 12.1382L6.56476 12.0724L14.069 4.91352L14.1449 4.84116L14.069 4.76881L13.1873 3.92764L13.1183 3.86183L13.0493 3.92761L6.49577 10.1735L3.95703 7.75166Z" fill="white" stroke="white" stroke-width="0.2"/>
</symbol>

<symbol width="16" height="15" viewBox="0 0 16 15" fill="#000000" xmlns="http://www.w3.org/2000/svg" id="check-unactive">
<path d="M14.2222 1.66667V13.3333H1.77778V1.66667H14.2222ZM14.2222 0H1.77778C0.8 0 0 0.75 0 1.66667V13.3333C0 14.25 0.8 15 1.77778 15H14.2222C15.2 15 16 14.25 16 13.3333V1.66667C16 0.75 15.2 0 14.2222 0Z" fill="#212121"/>
</symbol>


</svg>